<?xml version="1.0" standalone="no"?>
<!DOCTYPE svg >
<svg version="1.0" role="img" fill="#b1b1b1" xmlns="http://www.w3.org/2000/svg"
 width="376.000000pt" height="415.000000pt" viewBox="0 0 376.000000 415.000000"
 preserveAspectRatio="xMidYMid meet">

<g transform="translate(0.000000,415.000000) scale(0.100000,-0.100000)"
fill="#000000" stroke="none">
<path d="M1185 3285 c-379 -217 -693 -395 -698 -397 -4 -2 -10 -365 -14 -808
l-6 -805 703 -404 704 -403 50 25 c28 14 346 194 706 399 l655 373 3 805 2
806 -167 96 c-93 53 -408 234 -700 402 -293 168 -536 306 -540 305 -5 0 -318
-178 -698 -394z m-301 -1058 c47 -37 77 -96 83 -169 l6 -58 -188 0 -187 0 7
-37 c9 -53 35 -94 76 -121 28 -20 44 -23 91 -20 62 5 96 27 125 81 11 22 20
28 41 25 20 -2 26 -8 24 -22 -6 -31 -44 -82 -81 -107 -30 -21 -46 -24 -121
-24 -77 0 -91 3 -127 27 -101 67 -124 265 -43 376 43 59 100 84 186 80 59 -3
77 -8 108 -31z m836 11 c79 -40 116 -122 108 -243 -7 -104 -58 -187 -131 -214
-71 -27 -187 -4 -228 45 -12 15 -15 3 -19 -107 l-5 -124 -27 -3 -28 -3 0 330
0 331 30 0 c28 0 30 -3 30 -35 l0 -34 25 25 c58 58 166 72 245 32z m368 -5
c-2 -22 -10 -29 -37 -34 -54 -11 -80 -30 -101 -74 -17 -36 -20 -62 -20 -193
l0 -152 -30 0 -30 0 0 235 0 235 30 0 c28 0 30 -3 30 -36 l0 -36 27 32 c30 37
55 48 101 49 30 1 33 -1 30 -26z m275 13 c40 -16 91 -74 106 -118 6 -18 12
-53 13 -78 l3 -45 -184 -3 -184 -2 5 -45 c7 -57 46 -110 94 -125 77 -26 168 7
194 70 10 24 19 30 41 30 37 0 37 -14 -1 -74 -42 -66 -97 -89 -196 -84 -63 3
-78 7 -111 34 -57 45 -87 113 -87 199 0 38 6 87 13 109 16 47 75 114 116 132
39 17 137 18 178 0z m407 -4 c67 -33 108 -132 56 -132 -18 0 -29 10 -43 37
-22 45 -53 63 -111 63 -78 0 -122 -39 -108 -96 8 -29 43 -48 132 -70 93 -23
140 -48 159 -84 12 -22 23 -30 43 -30 23 0 30 -6 41 -36 20 -54 62 -76 140
-71 55 3 67 7 87 31 53 61 16 109 -105 137 -106 25 -143 42 -164 78 -35 59
-10 139 54 171 56 29 165 28 209 -2 41 -28 68 -65 72 -98 2 -21 -2 -26 -24
-28 -22 -3 -29 2 -33 21 -12 46 -50 70 -115 75 -55 4 -61 2 -90 -26 -37 -38
-38 -56 -2 -91 20 -20 48 -33 102 -45 87 -19 149 -51 168 -86 34 -65 -10 -155
-87 -179 -52 -15 -145 -14 -185 3 -34 14 -86 72 -86 97 0 8 -10 -4 -23 -26
-34 -62 -92 -87 -189 -83 -59 2 -83 8 -105 24 -38 28 -73 81 -73 110 0 20 5
24 28 24 23 0 30 -6 41 -36 17 -47 62 -74 126 -74 91 0 147 60 110 117 -19 28
-44 39 -138 59 -86 18 -123 37 -142 74 -33 63 -8 141 56 173 46 23 153 22 199
-1z m-1671 -82 c35 -49 65 -90 67 -90 1 0 32 41 68 90 62 84 69 90 102 90 41
0 45 9 -57 -126 l-78 -101 84 -113 c47 -63 85 -117 85 -122 0 -4 -13 -8 -30
-8 -26 0 -38 12 -101 100 l-71 101 -75 -101 c-70 -94 -76 -100 -110 -100 -27
0 -33 3 -26 13 5 6 47 60 92 119 51 68 79 113 75 120 -4 7 -41 57 -81 110 -40
53 -73 100 -73 103 0 3 15 5 33 5 30 0 38 -8 96 -90z"/>
<path d="M680 2188 c-32 -22 -60 -66 -75 -115 l-6 -23 157 0 157 0 -6 36 c-3
20 -13 47 -22 61 -42 63 -142 83 -205 41z"/>
<path d="M1535 2191 c-61 -37 -85 -88 -85 -180 0 -111 67 -191 160 -191 99 0
155 72 155 200 0 86 -20 130 -75 167 -42 29 -113 31 -155 4z"/>
<path d="M2203 2194 c-37 -18 -70 -65 -79 -113 l-6 -31 151 0 151 0 0 28 c0
99 -121 163 -217 116z"/>
</g>
</svg>
