<?xml version="1.0" standalone="no"?>
<!DOCTYPE svg PUBLIC "-//W3C//DTD SVG 20010904//EN"
 "http://www.w3.org/TR/2001/REC-SVG-20010904/DTD/svg10.dtd">
<svg version="1.0" xmlns="http://www.w3.org/2000/svg"
 width="213.000000pt" height="236.000000pt" viewBox="0 0 213.000000 236.000000"
 preserveAspectRatio="xMidYMid meet">

<g transform="translate(0.000000,236.000000) scale(0.100000,-0.100000)"
fill="#b1b1b1" stroke="none">
<path d="M860 2246 c0 -4 245 -734 255 -758 20 -50 36 -29 165 233 71 144 132
264 135 267 2 3 64 -115 136 -262 72 -147 136 -265 142 -263 18 6 25 24 156
410 l128 377 -559 0 c-307 0 -558 -2 -558 -4z"/>
<path d="M290 1349 c-119 -50 -135 -214 -29 -287 29 -20 44 -23 94 -20 72 4
106 26 135 84 37 74 20 150 -44 199 -41 31 -113 42 -156 24z"/>
<path d="M995 1345 c-46 -25 -63 -44 -81 -91 -40 -106 37 -214 152 -214 154 0
218 202 93 291 -42 29 -122 36 -164 14z"/>
<path d="M1696 1338 c-50 -29 -76 -78 -76 -143 0 -158 197 -213 294 -82 29 40
29 134 0 173 -35 48 -70 67 -126 71 -42 3 -61 -1 -92 -19z"/>
<path d="M1340 1172 c0 -38 -32 -111 -67 -151 -45 -54 -117 -90 -193 -98 -53
-5 -63 -10 -82 -37 -101 -146 -257 -273 -419 -341 l-59 -25 -38 19 c-55 28
-117 94 -149 159 -24 48 -28 70 -29 142 -1 83 -1 84 -28 91 -27 8 -29 5 -71
-84 -72 -155 -90 -225 -89 -352 0 -89 5 -121 23 -167 41 -106 143 -185 269
-208 126 -23 243 11 552 160 262 127 391 172 550 195 220 31 298 62 373 145
61 67 81 129 75 229 -2 42 -10 86 -16 97 -11 22 -12 22 -49 3 -155 -76 -348
23 -385 197 l-10 44 -79 0 c-70 0 -79 -2 -79 -18z"/>
</g>
</svg>
